<?xml version="1.0" encoding="UTF-8"?>
<svg id="_Слой_2" data-name="Слой 2" xmlns="http://www.w3.org/2000/svg" viewBox="0 0 22.51 28.99">
  <defs>
    <style>
      .cls-1 {
        fill: #fff;
      }

      .cls-1, .cls-2 {
        stroke-width: 0px;
      }

      .cls-2 {
        fill: #d1d1d1;
      }
    </style>
  </defs>
  <g id="Layer_1" data-name="Layer 1">
    <g>
      <path class="cls-1" d="m11.75,26.78c0,1.47-.73,2.21-2.18,2.21H2.15c-1.43,0-2.15-.74-2.15-2.21v-5.58h3.56v4.69h4.65v-6.08l-4.44-3.05v-.76l4.44-3v-5.1H3.56v4.41H0v-5.29c0-1.48.73-2.23,2.2-2.23h7.38c1.45,0,2.18.74,2.18,2.23v5.69c0,.96-.4,1.7-1.21,2.23l-2.24,1.45,2.27,1.42c.78.48,1.18,1.21,1.18,2.18v6.79Z"/>
      <path class="cls-2" d="m22.51,15.92c0,1.27-.33,2.52-.99,3.78-.66,1.26-1.55,2.35-2.68,3.27l-5.78,4.7V4.28l5.78-3.58c1.12-.69,2.02-.88,2.68-.55.66.32.99,1.1.99,2.37v13.4Zm-2.85,1.66V4.89c0-1.23-.55-1.49-1.66-.78l-2.11,1.36v16.97l2.04-1.6c1.16-.91,1.73-1.99,1.73-3.24Z"/>
    </g>
  </g>
</svg>