<?xml version="1.0" encoding="UTF-8"?>
<svg id="_Слой_2" data-name="Слой 2" xmlns="http://www.w3.org/2000/svg" viewBox="0 0 26.44 30.55">
  <defs>
    <style>
      .cls-1 {
        fill: #fff;
        stroke-width: 0px;
      }
    </style>
  </defs>
  <g id="Layer_1" data-name="Layer 1">
    <g>
      <path class="cls-1" d="m12.76,21.04h.68c3.79-.16,6.75-3.24,6.75-7.04s-2.96-6.88-6.75-7.04h-.67s0,0,0,0c-3.74.2-6.67,3.28-6.67,7.04s2.93,6.84,6.67,7.04Zm-4.26-2.48c.45-.32.93-.6,1.44-.83.48,1.01,1.16,1.91,2.01,2.67-1.3-.24-2.51-.88-3.45-1.84Zm4.36,1.88c-1.03-.78-1.86-1.78-2.41-2.91.77-.28,1.58-.44,2.41-.48v3.39Zm0-3.94c-.91.04-1.79.22-2.63.52-.32-.8-.51-1.65-.56-2.52h3.2s0,2,0,2Zm0-2.54h-3.21c0-.89.15-1.77.44-2.61.89.35,1.82.55,2.77.59v2.02Zm1.36,6.45c.89-.79,1.58-1.72,2.07-2.78.55.22,1.07.51,1.55.84-.97,1.02-2.25,1.7-3.63,1.94Zm3.99-2.35c-.53-.37-1.1-.69-1.7-.93.32-.84.51-1.72.56-2.63h2.54c-.1,1.31-.58,2.53-1.41,3.56Zm.2-7.85c.79,1.1,1.21,2.39,1.22,3.75h-2.55c0-.93-.15-1.84-.45-2.71.63-.27,1.22-.62,1.77-1.03Zm-.34-.43c-.5.38-1.05.7-1.62.95-.49-1.19-1.25-2.27-2.23-3.14,1.5.25,2.86,1.02,3.85,2.19Zm-4.67-2.16c1.14.87,2.01,2.01,2.54,3.31-.82.29-1.67.45-2.54.47v-3.78Zm0,4.33c.93-.02,1.85-.19,2.73-.5.27.81.4,1.65.41,2.51h-3.14s0-2.01,0-2.01Zm0,2.56h3.12c-.05.84-.23,1.66-.53,2.44-.83-.28-1.71-.43-2.59-.45v-1.99Zm0,2.54c.81.02,1.61.15,2.38.4-.54,1.14-1.36,2.15-2.38,2.94v-3.34Zm-.55-9.48v3.83c-.89-.04-1.75-.23-2.58-.55.55-1.29,1.43-2.42,2.58-3.28Zm-.91.04c-.94.84-1.68,1.88-2.17,3.02-.54-.25-1.04-.57-1.51-.94.97-1.09,2.26-1.82,3.68-2.08Zm-4.02,2.5c.51.41,1.07.75,1.66,1.03-.32.9-.48,1.85-.48,2.83h-2.47c0-1.4.46-2.73,1.3-3.85Zm-1.28,4.4h2.47c.05.94.26,1.86.6,2.72-.56.25-1.1.56-1.59.92-.87-1.04-1.38-2.3-1.48-3.65Z"/>
      <path class="cls-1" d="m12.99,30.55l-.45-.21c-2.83-1.32-6.78-3.82-9.57-8.24C-1.09,15.67-.02,9.24.63,6.77l.2-.77h.88c.54,0,2.42-.11,3.93-1.46,1.05-.94,1.63-2.2,1.63-3.54V0h11.57v1c0,2.76,2.49,5,5.56,5h.82l.24.71c.54,1.59,2.97,9.87-2.65,17.08-2.87,3.69-6.66,5.62-9.34,6.59l-.47.17ZM2.62,7.95c-.56,2.61-1.04,7.9,2.28,13.17,2.37,3.76,5.69,5.99,8.21,7.23,2.36-.92,5.48-2.63,7.88-5.7,4.48-5.76,3.22-12.32,2.55-14.68-3.52-.35-6.34-2.82-6.84-5.96h-7.28c-.24,1.49-1,2.87-2.2,3.95-1.57,1.41-3.39,1.86-4.59,2Z"/>
    </g>
  </g>
</svg>