<?xml version="1.0" encoding="UTF-8"?>
<svg id="_Слой_2" data-name="Слой 2" xmlns="http://www.w3.org/2000/svg" viewBox="0 0 33.83 27.7">
  <defs>
    <style>
      .cls-1 {
        fill: #fff;
        stroke-width: 0px;
      }
    </style>
  </defs>
  <g id="Layer_1" data-name="Layer 1">
    <g>
      <path class="cls-1" d="m0,.43v1.56c0,.24.19.43.43.43h1.17v.95H.43c-.24,0-.43.19-.43.43v1.6c0,.24.19.43.43.43h3.23v16.02H.43c-.24,0-.43.19-.43.43v1.56c0,.24.19.43.43.43h1.17v.95H.43c-.24,0-.43.19-.43.43v1.6c0,.24.19.43.43.43h32.97c.24,0,.43-.19.43-.43v-1.6c0-.24-.19-.43-.43-.43h-1.37v-.95h1.37c.24,0,.43-.19.43-.43v-1.56c0-.24-.19-.43-.43-.43h-3.64V5.84h3.64c.24,0,.43-.19.43-.43v-1.6c0-.24-.19-.43-.43-.43h-1.37v-.95h1.37c.24,0,.43-.19.43-.43V.43c0-.24-.19-.43-.43-.43H.43c-.24,0-.43.19-.43.43Zm.86.43h32.11v.7h-1.37c-.24,0-.43.19-.43.43v1.82c0,.24.19.43.43.43h1.37v.73h-3.53s-.07-.02-.11-.02h-2.59s-.07,0-.11.02H7.1s-.07-.02-.11-.02h-2.9s-.07,0-.11.02H.86v-.73h1.17c.24,0,.43-.19.43-.43v-1.82c0-.24-.19-.43-.43-.43H.86v-.7Zm28.04,20.8h-1.73V5.82h1.73v15.83Zm4.07,1.77h-1.37c-.24,0-.43.19-.43.43v1.82c0,.24.19.43.43.43h1.37v.73H.86v-.73h1.17c.24,0,.43-.19.43-.43v-1.82c0-.24-.19-.43-.43-.43H.86v-.7h32.11v.7ZM4.52,5.82h2.04v15.83h-2.04V5.82Zm3.01,16.04V5.84h18.78v16.02H7.53Z"/>
      <path class="cls-1" d="m20.68,4.24h3.19c.24,0,.43-.19.43-.43v-1.82c0-.24-.19-.43-.43-.43h-3.19c-.24,0-.43.19-.43.43v1.82c0,.24.19.43.43.43Zm.43-1.82h2.33v.95h-2.33v-.95Z"/>
      <path class="cls-1" d="m15.22,4.24h3.19c.24,0,.43-.19.43-.43v-1.82c0-.24-.19-.43-.43-.43h-3.19c-.24,0-.43.19-.43.43v1.82c0,.24.19.43.43.43Zm.43-1.82h2.33v.95h-2.33v-.95Z"/>
      <path class="cls-1" d="m26.14,4.24h3.19c.24,0,.43-.19.43-.43v-1.82c0-.24-.19-.43-.43-.43h-3.19c-.24,0-.43.19-.43.43v1.82c0,.24.19.43.43.43Zm.43-1.82h2.33v.95h-2.33v-.95Z"/>
      <path class="cls-1" d="m4.09,4.24h3.19c.24,0,.43-.19.43-.43v-1.82c0-.24-.19-.43-.43-.43h-3.19c-.24,0-.43.19-.43.43v1.82c0,.24.19.43.43.43Zm.43-1.82h2.33v.95h-2.33v-.95Z"/>
      <path class="cls-1" d="m9.55,4.24h3.19c.24,0,.43-.19.43-.43v-1.82c0-.24-.19-.43-.43-.43h-3.19c-.24,0-.43.19-.43.43v1.82c0,.24.19.43.43.43Zm.43-1.82h2.33v.95h-2.33v-.95Z"/>
      <path class="cls-1" d="m7.28,23.42h-3.19c-.24,0-.43.19-.43.43v1.82c0,.24.19.43.43.43h3.19c.24,0,.43-.19.43-.43v-1.82c0-.24-.19-.43-.43-.43Zm-.43,1.82h-2.33v-.95h2.33v.95Z"/>
      <path class="cls-1" d="m18.41,23.42h-3.19c-.24,0-.43.19-.43.43v1.82c0,.24.19.43.43.43h3.19c.24,0,.43-.19.43-.43v-1.82c0-.24-.19-.43-.43-.43Zm-.43,1.82h-2.33v-.95h2.33v.95Z"/>
      <path class="cls-1" d="m25.71,23.85v1.82c0,.24.19.43.43.43h3.19c.24,0,.43-.19.43-.43v-1.82c0-.24-.19-.43-.43-.43h-3.19c-.24,0-.43.19-.43.43Zm3.19,1.39h-2.33v-.95h2.33v.95Z"/>
      <path class="cls-1" d="m12.74,23.42h-3.19c-.24,0-.43.19-.43.43v1.82c0,.24.19.43.43.43h3.19c.24,0,.43-.19.43-.43v-1.82c0-.24-.19-.43-.43-.43Zm-.43,1.82h-2.33v-.95h2.33v.95Z"/>
      <path class="cls-1" d="m23.87,23.42h-3.19c-.24,0-.43.19-.43.43v1.82c0,.24.19.43.43.43h3.19c.24,0,.43-.19.43-.43v-1.82c0-.24-.19-.43-.43-.43Zm-.43,1.82h-2.33v-.95h2.33v.95Z"/>
      <path class="cls-1" d="m22.89,13.17l-9.07-6.11c-.13-.09-.3-.1-.44-.02-.14.07-.23.22-.23.38v12.22c0,.16.09.31.23.38.06.03.13.05.2.05.08,0,.17-.02.24-.07l9.07-6.11c.12-.08.19-.21.19-.36s-.07-.28-.19-.36Zm-8.88,5.66v-10.6l7.87,5.3-7.87,5.3Z"/>
    </g>
  </g>
</svg>