<?xml version="1.0" encoding="UTF-8"?>
<svg id="_Слой_2" data-name="Слой 2" xmlns="http://www.w3.org/2000/svg" viewBox="0 0 37.86 29.06">
  <defs>
    <style>
      .cls-1 {
        fill: #fff;
        stroke-width: 0px;
      }
    </style>
  </defs>
  <g id="Layer_1" data-name="Layer 1">
    <g>
      <g>
        <path class="cls-1" d="m33.07,28.66c-2.48,0-4.53-1.9-4.77-4.32h-1.88c-.24,2.42-2.28,4.32-4.77,4.32-2.64,0-4.79-2.15-4.79-4.79s2.15-4.79,4.79-4.79h11.42c2.64,0,4.79,2.15,4.79,4.79s-2.15,4.79-4.79,4.79Zm-7.57-5.26h3.72v.47c0,2.12,1.73,3.85,3.85,3.85s3.85-1.73,3.85-3.85-1.73-3.85-3.85-3.85h-11.42c-2.12,0-3.85,1.73-3.85,3.85s1.73,3.85,3.85,3.85,3.85-1.73,3.85-3.85v-.47Z"/>
        <path class="cls-1" d="m21.92,22.25v1.38h1.38v.48h-1.38v1.38h-.48v-1.38h-1.38v-.48h1.38v-1.38h.48m0-.31h-.48c-.17,0-.31.14-.31.31v1.07h-1.07c-.17,0-.31.14-.31.31v.48c0,.17.14.31.31.31h1.07v1.07c0,.17.14.31.31.31h.48c.17,0,.31-.14.31-.31v-1.07h1.07c.17,0,.31-.14.31-.31v-.48c0-.17-.14-.31-.31-.31h-1.07v-1.07c0-.17-.14-.31-.31-.31h0Z"/>
        <path class="cls-1" d="m22.99,18.66v1.03h-1.03v-1.03h1.03m0-.31h-1.03c-.17,0-.31.14-.31.31v1.03c0,.17.14.31.31.31h1.03c.17,0,.31-.14.31-.31v-1.03c0-.17-.14-.31-.31-.31h0Z"/>
        <path class="cls-1" d="m32.46,18.66v1.03h-1.03v-1.03h1.03m0-.31h-1.03c-.17,0-.31.14-.31.31v1.03c0,.17.14.31.31.31h1.03c.17,0,.31-.14.31-.31v-1.03c0-.17-.14-.31-.31-.31h0Z"/>
        <path class="cls-1" d="m29.74,19.55c.32,0,.58.26.58.58s-.26.58-.58.58h-5.11c-.32,0-.58-.26-.58-.58s.26-.58.58-.58h5.11m0-.31h-5.11c-.49,0-.89.4-.89.89s.4.89.89.89h5.11c.49,0,.89-.4.89-.89s-.4-.89-.89-.89h0Z"/>
        <path class="cls-1" d="m26.2,22.13c.14,0,.26.12.26.26s-.12.26-.26.26h-.92c-.14,0-.26-.12-.26-.26s.12-.26.26-.26h.92m0-.31h-.92c-.31,0-.56.25-.56.56s.25.56.56.56h.92c.31,0,.56-.25.56-.56s-.25-.56-.56-.56h0Z"/>
        <path class="cls-1" d="m29.16,22.13c.14,0,.26.12.26.26s-.12.26-.26.26h-.92c-.14,0-.26-.12-.26-.26s.12-.26.26-.26h.92m0-.31h-.92c-.31,0-.56.25-.56.56s.25.56.56.56h.92c.31,0,.56-.25.56-.56s-.25-.56-.56-.56h0Z"/>
        <path class="cls-1" d="m31.43,23.22c.31,0,.56.25.56.56s-.25.56-.56.56-.56-.25-.56-.56.25-.56.56-.56m0-.31c-.48,0-.87.39-.87.87s.39.87.87.87.87-.39.87-.87-.39-.87-.87-.87h0Z"/>
        <path class="cls-1" d="m33.23,24.84c.31,0,.56.25.56.56s-.25.56-.56.56-.56-.25-.56-.56.25-.56.56-.56m0-.31c-.48,0-.87.39-.87.87s.39.87.87.87.87-.39.87-.87-.39-.87-.87-.87h0Z"/>
        <path class="cls-1" d="m34.85,23.22c.31,0,.56.25.56.56s-.25.56-.56.56-.56-.25-.56-.56.25-.56.56-.56m0-.31c-.48,0-.87.39-.87.87s.39.87.87.87.87-.39.87-.87-.39-.87-.87-.87h0Z"/>
        <path class="cls-1" d="m33.23,21.67c.31,0,.56.25.56.56s-.25.56-.56.56-.56-.25-.56-.56.25-.56.56-.56m0-.31c-.48,0-.87.39-.87.87s.39.87.87.87.87-.39.87-.87-.39-.87-.87-.87h0Z"/>
      </g>
      <g>
        <path class="cls-1" d="m17.66,23.32H3.91c-2.16,0-3.91-1.76-3.91-3.91V3.91C0,1.76,1.76,0,3.91,0h20.78c2.16,0,3.91,1.76,3.91,3.91v15.49c0,.05,0,.1,0,.16l-.02.48h-7.13c-.7,0-1.39.19-1.99.56-.85.52-1.47,1.37-1.71,2.33l-.1.39ZM3.91,1.02c-1.6,0-2.9,1.3-2.9,2.9v15.49c0,1.6,1.3,2.9,2.9,2.9h12.97c.36-1.06,1.1-1.98,2.06-2.57.76-.46,1.63-.71,2.52-.71h6.14V3.91c0-1.6-1.3-2.9-2.9-2.9H3.91Z"/>
        <path class="cls-1" d="m19.25,20.73H6.43c-1.74,0-3.16-1.42-3.16-3.16V5.75c0-1.74,1.42-3.16,3.16-3.16h15.85c1.74,0,3.16,1.42,3.16,3.16v11.82c0,.92-.4,1.79-1.09,2.39l-.73-.84c.45-.39.71-.95.71-1.54V5.75c0-1.13-.92-2.04-2.04-2.04H6.43c-1.12,0-2.04.92-2.04,2.04v11.82c0,1.13.92,2.04,2.04,2.04h12.83v1.12Z"/>
        <path class="cls-1" d="m18.36,26.33h-8.77v-3.89h8.2l-.12.46c-.08.31-.12.63-.12.96,0,.67.17,1.34.5,1.92l.31.55Zm-8.02-.75h6.8c-.22-.55-.33-1.13-.33-1.73,0-.23.02-.45.05-.67h-6.52v2.4Z"/>
        <path class="cls-1" d="m26.52,29.06H3.43v-.39c0-.83.32-1.61.91-2.19.59-.59,1.37-.91,2.19-.91h11.42l.11.2c.69,1.24,2.01,2.02,3.43,2.02,1.25,0,2.4-.58,3.15-1.58l.23-.3.31.22c.83.58,1.33,1.53,1.33,2.55v.39Zm-3.37-.78h2.55c-.08-.49-.32-.94-.68-1.28-.52.58-1.16,1.02-1.87,1.28Zm-18.9,0h15.61c-.97-.36-1.8-1.03-2.36-1.93H6.54c-.62,0-1.2.24-1.64.68-.34.34-.57.78-.65,1.25Z"/>
      </g>
    </g>
  </g>
</svg>