<?xml version="1.0" encoding="UTF-8"?>
<svg id="_Слой_2" data-name="Слой 2" xmlns="http://www.w3.org/2000/svg" viewBox="0 0 29.83 29.8">
  <defs>
    <style>
      .cls-1 {
        fill: #fff;
        stroke-width: 0px;
      }
    </style>
  </defs>
  <g id="Layer_1" data-name="Layer 1">
    <path class="cls-1" d="m15.55,0h-1.42s0,0-.01,0C6.2.43,0,6.96,0,14.9s6.2,14.48,14.12,14.9h1.43c8.02-.33,14.28-6.86,14.28-14.9S23.56.34,15.55,0Zm9.83,5.97c-1.07.8-2.22,1.48-3.44,2.01-1.03-2.53-2.65-4.81-4.72-6.65,3.18.54,6.04,2.16,8.15,4.64ZM15.49,1.4c2.4,1.85,4.26,4.26,5.38,7.01-1.73.62-3.54.95-5.38.99V1.4Zm0,9.16c1.97-.04,3.91-.4,5.78-1.06.56,1.71.86,3.5.87,5.32h-6.64s0-4.25,0-4.25Zm0,5.41h6.6c-.11,1.78-.48,3.51-1.12,5.16-1.77-.59-3.61-.91-5.49-.94v-4.21ZM12.41,1.37c-1.98,1.78-3.56,3.97-4.58,6.39-1.13-.54-2.21-1.21-3.2-1.98,2.05-2.31,4.78-3.85,7.78-4.4ZM3.9,6.67c1.09.86,2.27,1.59,3.51,2.17-.67,1.91-1.01,3.92-1.02,5.98H1.15c.02-2.96.96-5.77,2.74-8.15Zm.44,17.02c-1.84-2.21-2.92-4.86-3.14-7.71h5.23c.11,2,.54,3.93,1.28,5.76-1.19.53-2.32,1.18-3.37,1.95Zm.78.86c.95-.69,1.97-1.28,3.05-1.75,1.03,2.14,2.45,4.04,4.25,5.64-2.75-.51-5.32-1.87-7.3-3.89Zm9.23,3.98c-2.18-1.64-3.94-3.76-5.1-6.16,1.63-.59,3.35-.94,5.1-1.02v7.18Zm0-8.33c-1.92.08-3.79.46-5.57,1.11-.68-1.69-1.08-3.48-1.19-5.33h6.76s0,4.22,0,4.22Zm0-5.38h-6.8c0-1.89.32-3.75.93-5.51,1.87.74,3.85,1.16,5.87,1.24v4.27Zm0-5.42c-1.88-.09-3.71-.48-5.46-1.17,1.16-2.73,3.04-5.12,5.46-6.94v8.11Zm1.15,19.02v-7.07c1.72.04,3.41.32,5.03.85-1.13,2.41-2.87,4.55-5.03,6.22Zm1.73.06c1.88-1.67,3.35-3.64,4.39-5.88,1.16.47,2.26,1.07,3.28,1.78-2.06,2.17-4.75,3.6-7.67,4.1Zm8.43-4.97c-1.11-.79-2.32-1.45-3.6-1.97.68-1.77,1.08-3.64,1.19-5.56h5.38c-.21,2.76-1.24,5.36-2.97,7.53Zm3.02-8.69h-5.39c0-1.96-.33-3.89-.94-5.74,1.33-.58,2.59-1.31,3.75-2.19,1.67,2.32,2.57,5.06,2.59,7.92Z"/>
  </g>
</svg>