<?xml version="1.0" encoding="UTF-8"?>
<svg id="_Слой_2" data-name="Слой 2" xmlns="http://www.w3.org/2000/svg" viewBox="0 0 36.32 33.35">
  <defs>
    <style>
      .cls-1 {
        fill: #fff;
        stroke-width: 0px;
      }
    </style>
  </defs>
  <g id="Layer_1" data-name="Layer 1">
    <g>
      <path class="cls-1" d="m27.27,1.99c-.07-.03-.13-.08-.16-.16-.01-.03-.02-.07-.02-.11,0,.04,0,.07.02.11.03.07.09.13.16.16l3.49,1.41s.07.02.11.02c-.04,0-.07,0-.11-.02l-3.49-1.41Z"/>
      <path class="cls-1" d="m.66,12.83h.49v-2.69c0-.62.51-1.13,1.13-1.13h21.83l.12-.29.35-.87H2.29c-1.26,0-2.29,1.03-2.29,2.29v3.56s0,0,0,0H0c0-.11.03-.22.09-.31,0-.31.26-.56.58-.56Z"/>
      <path class="cls-1" d="m34.04,7.56h-4.65l-.47,1.16h5.12c.62,0,1.13.51,1.13,1.13v2.98h.58c.32,0,.58.26.58.58h0s0,0,0,0v-3.56c0-1.26-1.03-2.29-2.29-2.29Z"/>
      <path class="cls-1" d="m35.74,12.83h-8.49l1.66-4.11.47-1.16,1.75-4.32c-.03.07-.08.13-.15.16-.04.02-.07.02-.11.02s-.07,0-.11-.02l-3.49-1.41c-.07-.03-.13-.08-.16-.16-.01-.03-.02-.07-.02-.11s0-.07.02-.11l-2.41,5.95-.12.29-.35.87-.12.29-1.55,3.82H.66c-.31,0-.57.25-.58.56,0,0,0,.01,0,.02H.09v17.65c0,1.26,1.03,2.29,2.29,2.29h31.66c1.26,0,2.29-1.03,2.29-2.29V13.41h0c0-.32-.26-.58-.58-.58Zm-.58,18.23c0,.62-.51,1.13-1.13,1.13H2.37c-.62,0-1.13-.51-1.13-1.13V13.99h20.86l-2.44,6.04s-.01.04-.02.06l.54.22h0s.01-.04.02-.06L27.54,2.1l2.95,1.19-7.34,18.15s-.02.04-.03.06l.54.22h0s.02-.04.03-.06l3.1-7.67h8.38v17.08Z"/>
      <path class="cls-1" d="m2.14,10.46c0,.18.14.32.32.32h2.49c.18,0,.32-.14.32-.32s-.14-.32-.32-.32h-2.49c-.18,0-.32.14-.32.32Z"/>
      <path class="cls-1" d="m31.7,10.78h2.49c.18,0,.32-.14.32-.32s-.14-.32-.32-.32h-2.49c-.18,0-.32.14-.32.32s.14.32.32.32Z"/>
      <path class="cls-1" d="m27.09,1.72s0,.07.02.11c.03.07.09.13.16.16l3.49,1.41s.07.02.11.02.08,0,.11-.02c.07-.03.13-.09.15-.16h0s.21-.53.21-.53c.38-.95-.21-2.08-1.32-2.53-.53-.21-1.1-.24-1.6-.08-.52.17-.92.52-1.1.98l-.21.53s0,0,0,0h0s-.02.07-.02.11Zm.77-.42c.12-.31.39-.54.74-.65.38-.12.8-.1,1.21.07.81.33,1.26,1.13,1,1.78l-.1.26-2.95-1.19.1-.26Z"/>
      <path class="cls-1" d="m19.24,24.69l.18.08s.08.04.12.06l-.18,1.51c-.01.09.11.14.16.06l.84-1.2s.06.03.1.04l.2.08,3.08-3.57-.08-.03h0l-.54-.22-2.94-1.19h0l-.54-.22-.14-.05-.27,4.65Zm1.26-.07c-.23-.1-.46-.2-.66-.29l.2-3.45,2.74,1.11-2.27,2.64Z"/>
    </g>
  </g>
</svg>