<?xml version="1.0" encoding="UTF-8"?>
<svg id="_Слой_2" data-name="Слой 2" xmlns="http://www.w3.org/2000/svg" viewBox="0 0 26.93 29.93">
  <defs>
    <style>
      .cls-1 {
        fill: #fff;
        stroke-width: 0px;
      }
    </style>
  </defs>
  <g id="Layer_1" data-name="Layer 1">
    <g>
      <path class="cls-1" d="m19.22,3.99C15.46-.64,8.63-1.34,4,2.42,1.76,4.24.36,6.83.06,9.7c-.3,2.87.54,5.69,2.36,7.94,1.82,2.24,4.41,3.64,7.28,3.94.38.04.76.06,1.13.06,1.59,0,3.13-.35,4.55-1.01l7.34,9.04c.14.17.35.27.56.27.16,0,.32-.05.45-.16l2.92-2.37c.15-.12.24-.29.26-.48.02-.19-.04-.38-.16-.53l-7.33-9.02c1.19-1.56,1.94-3.43,2.15-5.43.3-2.87-.54-5.69-2.36-7.94Zm.93,7.79c-.26,2.49-1.47,4.74-3.42,6.32-1.95,1.58-4.39,2.31-6.88,2.05-2.49-.26-4.74-1.47-6.32-3.42-1.58-1.95-2.31-4.39-2.05-6.88.26-2.49,1.47-4.74,3.42-6.32,1.74-1.41,3.83-2.1,5.91-2.1,2.73,0,5.44,1.18,7.29,3.46,1.58,1.95,2.31,4.39,2.05,6.88Zm3.24,16.42l-6.73-8.28c.34-.22.66-.45.98-.71.29-.24.57-.49.84-.75l6.72,8.28-1.8,1.47Z"/>
      <path class="cls-1" d="m11.64,2.94c-2.1-.22-4.17.4-5.81,1.73-1.64,1.33-2.67,3.23-2.88,5.33-.22,2.1.4,4.17,1.73,5.81,1.56,1.92,3.85,2.92,6.15,2.92,1.75,0,3.52-.58,4.99-1.77,3.39-2.75,3.91-7.75,1.15-11.14-1.33-1.64-3.23-2.67-5.33-2.88Zm3.27,12.91c-2.77,2.25-6.87,1.83-9.12-.94-1.09-1.34-1.6-3.03-1.42-4.76.18-1.72,1.02-3.27,2.36-4.36,1.17-.95,2.59-1.45,4.08-1.45.23,0,.45.01.68.04,1.72.18,3.27,1.02,4.36,2.36,2.25,2.77,1.83,6.87-.94,9.12Z"/>
    </g>
  </g>
</svg>