<?xml version="1.0" encoding="UTF-8"?>
<svg id="_Слой_2" data-name="Слой 2" xmlns="http://www.w3.org/2000/svg" viewBox="0 0 40.73 23.67">
  <defs>
    <style>
      .cls-1 {
        fill: #fff;
        stroke-width: 0px;
      }
    </style>
  </defs>
  <g id="Layer_1" data-name="Layer 1">
    <path class="cls-1" d="m5.58,12.79c-.74.16-1.3.82-1.3,1.61,0,.36.12.71.34,1l-.69,4.07c-.03.17.02.35.13.49.11.13.28.21.46.21h2.81c.17,0,.34-.08.45-.21.11-.13.17-.3.14-.48l-.59-4.24c.15-.25.23-.54.23-.84,0-.59-.32-1.11-.79-1.4v-2.2l3.71,1.61v9.21c0,1.14.92,2.06,2.06,2.06h16.92c1.13,0,2.06-.92,2.06-2.06v-9.77l8.83-3.83c.23-.1.37-.33.36-.57,0-.25-.17-.46-.41-.54L20.23.03c-.13-.05-.28-.04-.41,0C12.94,2.64,1.65,6.8.6,6.86c-.28,0-.53.2-.58.48-.06.28.09.56.35.67l5.22,2.27v2.52Zm-.35,6.18l.62-3.66c.04-.21-.04-.42-.21-.56-.1-.09-.16-.21-.16-.34,0-.25.2-.45.45-.45s.45.2.45.45c0,.14-.06.24-.11.29-.11.13-.17.3-.14.48l.52,3.8h-1.42Zm25.1,2.64c0,.47-.38.86-.86.86H12.55c-.47,0-.86-.38-.86-.86v-8.69l8.43,3.66c.08.03.16.05.24.05s.16-.02.24-.05l9.73-4.22v9.25ZM2.42,7.6c4.34-1.35,14.78-5.28,17.62-6.36l18.42,6.29-18.1,7.85-11.95-5.19,10.09-1.33c.44.27,1.1.44,1.86.44,1.39,0,2.44-.55,2.44-1.29s-1.05-1.29-2.44-1.29c-1.2,0-2.14.41-2.38,1l-11.71,1.55-3.85-1.67Zm16.1.42c0-.28.72-.69,1.84-.69s1.84.41,1.84.69-.72.69-1.84.69-1.84-.41-1.84-.69Z"/>
  </g>
</svg>