<?xml version="1.0" encoding="UTF-8"?>
<svg id="_Слой_2" data-name="Слой 2" xmlns="http://www.w3.org/2000/svg" viewBox="0 0 40.6 27.23">
  <defs>
    <style>
      .cls-1 {
        fill: #fff;
        stroke-width: 0px;
      }
    </style>
  </defs>
  <g id="Layer_1" data-name="Layer 1">
    <g>
      <path class="cls-1" d="m20.68,9.5v.02h5.19c.29,0,.52-.23.52-.52V.52c0-.29-.23-.52-.52-.52h-11.13c-.29,0-.52.23-.52.52v8.48c0,.29.23.52.52.52h5.19v-.02h.76Zm-5.43-1.02V1.04h10.1v7.44h-10.1Z"/>
      <path class="cls-1" d="m12.17,26.71v-8.48c0-.29-.23-.52-.52-.52H.52c-.29,0-.52.23-.52.52v8.48c0,.29.23.52.52.52h11.13c.29,0,.52-.23.52-.52Zm-1.04-.52H1.04v-7.44h10.1v7.44Z"/>
      <path class="cls-1" d="m14.73,17.71c-.29,0-.52.23-.52.52v8.48c0,.29.23.52.52.52h11.14c.29,0,.52-.23.52-.52v-8.48c0-.29-.23-.52-.52-.52h-11.14Zm10.62,8.48h-10.1v-7.44h10.1v7.44Z"/>
      <path class="cls-1" d="m28.95,17.71c-.29,0-.52.23-.52.52v8.48c0,.29.23.52.52.52h11.14c.29,0,.52-.23.52-.52v-8.48c0-.29-.23-.52-.52-.52h-11.14Zm10.62,8.48h-10.1v-7.44h10.1v7.44Z"/>
      <polygon class="cls-1" points="6.39 16.98 7.14 16.98 7.14 14.16 19.92 14.16 19.92 16.98 20.68 16.98 20.68 14.16 33.46 14.16 33.46 16.98 34.21 16.98 34.21 13.41 20.68 13.41 20.68 9.52 20.68 9.5 19.92 9.5 19.92 9.52 19.92 13.41 6.39 13.41 6.39 16.98"/>
    </g>
  </g>
</svg>