<?xml version="1.0" encoding="UTF-8"?>
<svg id="_Слой_2" data-name="Слой 2" xmlns="http://www.w3.org/2000/svg" viewBox="0 0 44.52 30.97">
  <defs>
    <style>
      .cls-1 {
        fill: #fff;
        stroke-width: 0px;
      }
    </style>
  </defs>
  <g id="Layer_1" data-name="Layer 1">
    <g>
      <path class="cls-1" d="m44.51,28.19s0-.03,0-.05c0-.03-.01-.05-.02-.08,0-.02-.01-.03-.02-.05-.01-.03-.03-.06-.04-.08,0,0-.01-.02-.02-.03-.02-.04-.05-.07-.08-.1,0,0-.02-.01-.03-.02-.02-.02-.05-.04-.07-.06-.01,0-.03-.02-.04-.03-.02-.01-.03-.02-.05-.03l-5.43-2.69V.72c0-.4-.32-.72-.72-.72H6.37c-.4,0-.72.32-.72.72v24.26L.39,27.66s-.03.02-.04.03c-.01,0-.03.02-.04.03-.02.02-.05.04-.07.06-.01,0-.02.02-.03.03-.03.03-.06.06-.08.1,0,0,0,0,0,.01-.02.03-.04.06-.05.1,0,.01-.01.03-.02.04,0,.03-.02.05-.02.08,0,.02,0,.03-.01.05,0,.03,0,.06,0,.09,0,0,0,.02,0,.03v1.95c0,.4.32.72.72.72h43.08c.4,0,.72-.32.72-.72v-1.95s0-.02,0-.03c0-.03,0-.06,0-.09Zm-40.8-.6l2.84-1.45h31.25l2.93,1.45H3.71ZM7.09,1.44h30.16v23.27H7.09V1.44Zm35.99,28.1H1.44v-.51h41.65v.51Z"/>
      <path class="cls-1" d="m34.17,2.97H10.17c-.4,0-.72.32-.72.72v16.18c0,.4.32.72.72.72h24c.4,0,.72-.32.72-.72V3.69c0-.4-.32-.72-.72-.72Zm-.72,16.18H10.89V4.4h22.57v14.74Z"/>
      <path class="cls-1" d="m22.46,20.99c-.85,0-1.54.69-1.54,1.54s.69,1.54,1.54,1.54,1.54-.69,1.54-1.54-.69-1.54-1.54-1.54Zm0,2.23c-.38,0-.68-.31-.68-.68s.31-.68.68-.68.68.31.68.68-.31.68-.68.68Z"/>
    </g>
  </g>
</svg>