<?xml version="1.0" encoding="UTF-8"?>
<svg id="_Слой_2" data-name="Слой 2" xmlns="http://www.w3.org/2000/svg" viewBox="0 0 30.76 28.84">
  <defs>
    <style>
      .cls-1 {
        fill: #fff;
        stroke-width: 0px;
      }
    </style>
  </defs>
  <g id="Layer_1" data-name="Layer 1">
    <g>
      <path class="cls-1" d="m5.12,26.31c0,.46-.38.84-.84.84h-.91c-.46,0-.84-.38-.84-.84v-1.87h-.97c-.08,0-.16-.01-.23-.02v1.9c0,1.13.92,2.04,2.04,2.04h.91c1.13,0,2.04-.92,2.04-2.04v-1.87h-1.2v1.87Z"/>
      <path class="cls-1" d="m28.69,24.44v2.36c0,.46-.38.84-.84.84h-.91c-.46,0-.84-.38-.84-.84v-2.36h-1.2v2.36c0,1.13.92,2.04,2.04,2.04h.91c1.13,0,2.04-.92,2.04-2.04v-2.53c-.21.1-.44.17-.69.17h-.51Z"/>
      <path class="cls-1" d="m2.53,20.56v-6.53c0-.48.36-.86.79-.86h24.58c.44,0,.79.39.79.86v6.53h.51c.25,0,.48.06.69.17v-6.7c0-1.14-.89-2.06-2-2.06h-.5v-3.03c.26.12.57.2.9.2.99,0,1.77-.64,1.77-1.46v-2.51c0-.82-.78-1.46-1.77-1.46-.33,0-.64.07-.9.2v-1.48c0-1.33-.92-2.41-2.04-2.41H5.87c-1.13,0-2.04,1.08-2.04,2.41v1.44c-.25-.1-.54-.16-.85-.16-1.05,0-1.87.64-1.87,1.46v2.51c0,.82.82,1.46,1.87,1.46.31,0,.6-.06.85-.16v2.99h-.5c-1.1,0-1.99.93-1.99,2.06v6.55c.08-.01.15-.02.23-.02h.97ZM27.72,5.16c0-.08.21-.26.57-.26s.57.18.57.26v2.51c0,.08-.22.26-.57.26s-.57-.18-.57-.26v-2.51ZM5.03,2.41c0-.66.39-1.21.84-1.21h19.48c.46,0,.84.55.84,1.21v9.56H5.03V2.41Zm-1.38,5.26c-.01.06-.24.26-.67.26s-.66-.2-.67-.26v-2.51c0-.06.24-.26.67-.26s.66.2.67.26v2.51Z"/>
      <path class="cls-1" d="m29.2,20.56H1.56c-.08,0-.16.01-.23.02-.75.11-1.33.76-1.33,1.54v.75c0,.78.58,1.42,1.33,1.54.08.01.15.02.23.02h27.64c.25,0,.48-.06.69-.17.51-.26.87-.78.87-1.39v-.75c0-.61-.36-1.14-.87-1.39-.21-.1-.44-.17-.69-.17Zm.69,2.32c0,.38-.31.69-.69.69H1.56c-.38,0-.69-.31-.69-.69v-.75c0-.38.31-.69.69-.69h27.64c.38,0,.69.31.69.69v.75Z"/>
      <path class="cls-1" d="m23.65,2.92H7.61c-.76,0-1.38.62-1.38,1.38v4.69c0,.76.62,1.38,1.38,1.38h16.04c.76,0,1.38-.62,1.38-1.38v-4.69c0-.76-.62-1.38-1.38-1.38Zm.78,6.07c0,.43-.35.78-.78.78H7.61c-.43,0-.78-.35-.78-.78v-4.69c0-.43.35-.78.78-.78h16.04c.43,0,.78.35.78.78v4.69Z"/>
      <path class="cls-1" d="m7.91,15.07c-.94,0-1.7.76-1.7,1.7s.76,1.7,1.7,1.7,1.7-.76,1.7-1.7-.76-1.7-1.7-1.7Zm0,2.8c-.61,0-1.1-.49-1.1-1.1s.49-1.1,1.1-1.1,1.1.49,1.1,1.1-.49,1.1-1.1,1.1Z"/>
      <path class="cls-1" d="m23.91,15.07c-.94,0-1.7.76-1.7,1.7s.76,1.7,1.7,1.7,1.7-.76,1.7-1.7-.76-1.7-1.7-1.7Zm0,2.8c-.61,0-1.1-.49-1.1-1.1s.49-1.1,1.1-1.1,1.1.49,1.1,1.1-.49,1.1-1.1,1.1Z"/>
    </g>
  </g>
</svg>